# xmcd
#
# Track frame offsets:
#	150
#	20759
#	37944
#	72580
#	110403
#	126805
#	156829
#	171949
#	195760
#	212145
#
# Disc length: 3042 seconds
#
# Revision: 1
# Processed by: cddbd v1.4PL0 Copyright (c) Steve Scherf et al.
# Submitted via: audiograbber 1.81.02
#
DISCID=870be00a
DTITLE=Fred James - Blazz
DYEAR=2002
DGENRE=
TTITLE0=Midnight Drag
TTITLE1=Sneaky Suspicion
TTITLE2=Hush
TTITLE3=Sloe Blues
TTITLE4=A Fool Never Learns
TTITLE5=Miles Away
TTITLE6=Blazz
TTITLE7=Full Moon On Main Street
TTITLE8=Herb Stuffing
TTITLE9=McGruff
EXTD=Label -   R.O.A.D. Records
EXTT0=
EXTT1=
EXTT2=
EXTT3=
EXTT4=
EXTT5=
EXTT6=
EXTT7=
EXTT8=
EXTT9=
PLAYORDER=
